# xmcd
#
# Track frame offsets:
#	150
#	12767
#	23012
#	34670
#	51437
#	61912
#	74307
#	89180
#	99875
#	109110
#	120842
#	134267
#	145750
#
# Disc length: 2103 seconds
#
# Revision: 0
# Processed by: cddbd v1.4PL0 Copyright (c) Steve Scherf et al.
# Submitted via: audiograbber 1.81.03
#
DISCID=a708350d
DTITLE=Jussi Syren And The Groundbreakers - Factories And Fields
DYEAR=1999
DGENRE=Bluegrass
TTITLE0=Darling Nellie Across The Sea
TTITLE1=Walkin' In
TTITLE2=Factories And Fields
TTITLE3=Hot Pot
TTITLE4=Golden City
TTITLE5=Ramblin' Man
TTITLE6=Long, Dark Tennessee Nights
TTITLE7=Midnight Winds
TTITLE8=Where Shall I Be
TTITLE9=We Could Use A Little Rain
TTITLE10=God Put A Rainbow In The Clouds
TTITLE11=Jessica
TTITLE12=Bad News
EXTD=
EXTT0=
EXTT1=
EXTT2=
EXTT3=
EXTT4=
EXTT5=
EXTT6=
EXTT7=
EXTT8=
EXTT9=
EXTT10=
EXTT11=
EXTT12=
PLAYORDER=
